# MagicaVoxel @ Ephtracy

# group
g ten

# material
mtllib ten.mtl
usemtl palette

# normals
vn -1 0 0
vn 1 0 0
vn 0 0 1
vn 0 0 -1
vn 0 -1 0
vn 0 1 0

# texcoords
vt 0.0175781 0.5
vt 0.0214844 0.5

# verts
v -3.5 1 1.5
v -3.5 1 0.5
v -3.5 1 -1.5
v -3.5 2 1.5
v -3.5 2 0.5
v -3.5 2 -1.5
v -3.5 7 1.5
v -3.5 7 0.5
v -3.5 7 -1.5
v -3.5 8 1.5
v -3.5 8 0.5
v -3.5 8 -1.5
v -2.5 5 1.5
v -2.5 5 0.5
v -2.5 5 -1.5
v -2.5 6 1.5
v -2.5 6 0.5
v -2.5 6 -1.5
v -1.5 2 1.5
v -1.5 2 0.5
v -1.5 2 -1.5
v -1.5 3 1.5
v -1.5 3 0.5
v -1.5 3 -1.5
v -0.5 3 1.5
v -0.5 3 0.5
v -0.5 3 -1.5
v -0.5 5 1.5
v -0.5 5 0.5
v -0.5 5 -1.5
v -0.5 6 1.5
v -0.5 6 0.5
v -0.5 6 -1.5
v -0.5 7 1.5
v -0.5 7 0.5
v -0.5 7 -1.5
v 0.5 2 1.5
v 0.5 2 0.5
v 0.5 2 -1.5
v 0.5 3 1.5
v 0.5 3 0.5
v 0.5 3 -1.5
v 1.5 1 1.5
v 1.5 1 0.5
v 1.5 1 -1.5
v 1.5 2 1.5
v 1.5 2 0.5
v 1.5 2 -1.5
v -1.5 1 1.5
v -1.5 1 0.5
v -1.5 1 -1.5
v -1.5 2 1.5
v -1.5 2 0.5
v -1.5 2 -1.5
v -0.5 2 1.5
v -0.5 2 0.5
v -0.5 2 -1.5
v -0.5 3 1.5
v -0.5 3 0.5
v -0.5 3 -1.5
v 0.5 3 1.5
v 0.5 3 0.5
v 0.5 3 -1.5
v 0.5 5 1.5
v 0.5 5 0.5
v 0.5 5 -1.5
v 0.5 6 1.5
v 0.5 6 0.5
v 0.5 6 -1.5
v 0.5 7 1.5
v 0.5 7 0.5
v 0.5 7 -1.5
v 1.5 2 1.5
v 1.5 2 0.5
v 1.5 2 -1.5
v 1.5 3 1.5
v 1.5 3 0.5
v 1.5 3 -1.5
v 2.5 5 1.5
v 2.5 5 0.5
v 2.5 5 -1.5
v 2.5 6 1.5
v 2.5 6 0.5
v 2.5 6 -1.5
v 3.5 1 1.5
v 3.5 1 0.5
v 3.5 1 -1.5
v 3.5 2 1.5
v 3.5 2 0.5
v 3.5 2 -1.5
v 3.5 7 1.5
v 3.5 7 0.5
v 3.5 7 -1.5
v 3.5 8 1.5
v 3.5 8 0.5
v 3.5 8 -1.5
v -3.5 1 1.5
v -3.5 2 1.5
v -3.5 7 1.5
v -3.5 8 1.5
v -2.5 5 1.5
v -2.5 6 1.5
v -1.5 1 1.5
v -1.5 2 1.5
v -1.5 3 1.5
v -0.5 2 1.5
v -0.5 3 1.5
v -0.5 5 1.5
v -0.5 6 1.5
v -0.5 7 1.5
v 0.5 2 1.5
v 0.5 3 1.5
v 0.5 5 1.5
v 0.5 6 1.5
v 0.5 7 1.5
v 1.5 1 1.5
v 1.5 2 1.5
v 1.5 3 1.5
v 2.5 5 1.5
v 2.5 6 1.5
v 3.5 1 1.5
v 3.5 2 1.5
v 3.5 7 1.5
v 3.5 8 1.5
v -3.5 1 -1.5
v -3.5 2 -1.5
v -3.5 7 -1.5
v -3.5 8 -1.5
v -2.5 5 -1.5
v -2.5 6 -1.5
v -1.5 1 -1.5
v -1.5 2 -1.5
v -1.5 3 -1.5
v -0.5 2 -1.5
v -0.5 3 -1.5
v -0.5 5 -1.5
v -0.5 6 -1.5
v -0.5 7 -1.5
v 0.5 2 -1.5
v 0.5 3 -1.5
v 0.5 5 -1.5
v 0.5 6 -1.5
v 0.5 7 -1.5
v 1.5 1 -1.5
v 1.5 2 -1.5
v 1.5 3 -1.5
v 2.5 5 -1.5
v 2.5 6 -1.5
v 3.5 1 -1.5
v 3.5 2 -1.5
v 3.5 7 -1.5
v 3.5 8 -1.5
v -3.5 1 1.5
v -1.5 1 1.5
v 1.5 1 1.5
v 3.5 1 1.5
v -3.5 1 0.5
v -1.5 1 0.5
v 1.5 1 0.5
v 3.5 1 0.5
v -3.5 1 -1.5
v -1.5 1 -1.5
v 1.5 1 -1.5
v 3.5 1 -1.5
v -1.5 2 1.5
v -0.5 2 1.5
v 0.5 2 1.5
v 1.5 2 1.5
v -1.5 2 0.5
v -0.5 2 0.5
v 0.5 2 0.5
v 1.5 2 0.5
v -1.5 2 -1.5
v -0.5 2 -1.5
v 0.5 2 -1.5
v 1.5 2 -1.5
v -0.5 3 1.5
v 0.5 3 1.5
v -0.5 3 0.5
v 0.5 3 0.5
v -0.5 3 -1.5
v 0.5 3 -1.5
v -2.5 5 1.5
v -0.5 5 1.5
v 0.5 5 1.5
v 2.5 5 1.5
v -2.5 5 0.5
v -0.5 5 0.5
v 0.5 5 0.5
v 2.5 5 0.5
v -2.5 5 -1.5
v -0.5 5 -1.5
v 0.5 5 -1.5
v 2.5 5 -1.5
v -3.5 7 1.5
v -0.5 7 1.5
v 0.5 7 1.5
v 3.5 7 1.5
v -3.5 7 0.5
v -0.5 7 0.5
v 0.5 7 0.5
v 3.5 7 0.5
v -3.5 7 -1.5
v -0.5 7 -1.5
v 0.5 7 -1.5
v 3.5 7 -1.5
v -3.5 2 1.5
v -1.5 2 1.5
v 1.5 2 1.5
v 3.5 2 1.5
v -3.5 2 0.5
v -1.5 2 0.5
v 1.5 2 0.5
v 3.5 2 0.5
v -3.5 2 -1.5
v -1.5 2 -1.5
v 1.5 2 -1.5
v 3.5 2 -1.5
v -1.5 3 1.5
v -0.5 3 1.5
v 0.5 3 1.5
v 1.5 3 1.5
v -1.5 3 0.5
v -0.5 3 0.5
v 0.5 3 0.5
v 1.5 3 0.5
v -1.5 3 -1.5
v -0.5 3 -1.5
v 0.5 3 -1.5
v 1.5 3 -1.5
v -2.5 6 1.5
v -0.5 6 1.5
v 0.5 6 1.5
v 2.5 6 1.5
v -2.5 6 0.5
v -0.5 6 0.5
v 0.5 6 0.5
v 2.5 6 0.5
v -2.5 6 -1.5
v -0.5 6 -1.5
v 0.5 6 -1.5
v 2.5 6 -1.5
v -3.5 8 1.5
v 3.5 8 1.5
v -3.5 8 0.5
v 3.5 8 0.5
v -3.5 8 -1.5
v 3.5 8 -1.5

# faces
f 4/2/1 2/2/1 1/2/1
f 5/1/1 3/1/1 2/1/1
f 5/2/1 2/2/1 4/2/1
f 6/1/1 3/1/1 5/1/1
f 10/2/1 8/2/1 7/2/1
f 11/1/1 9/1/1 8/1/1
f 11/2/1 8/2/1 10/2/1
f 12/1/1 9/1/1 11/1/1
f 16/2/1 14/2/1 13/2/1
f 17/1/1 15/1/1 14/1/1
f 17/2/1 14/2/1 16/2/1
f 18/1/1 15/1/1 17/1/1
f 22/2/1 20/2/1 19/2/1
f 23/1/1 21/1/1 20/1/1
f 23/2/1 20/2/1 22/2/1
f 24/1/1 21/1/1 23/1/1
f 28/2/1 26/2/1 25/2/1
f 29/1/1 27/1/1 26/1/1
f 29/2/1 26/2/1 28/2/1
f 30/1/1 27/1/1 29/1/1
f 34/2/1 32/2/1 31/2/1
f 35/1/1 33/1/1 32/1/1
f 35/2/1 32/2/1 34/2/1
f 36/1/1 33/1/1 35/1/1
f 40/2/1 38/2/1 37/2/1
f 41/1/1 39/1/1 38/1/1
f 41/2/1 38/2/1 40/2/1
f 42/1/1 39/1/1 41/1/1
f 46/2/1 44/2/1 43/2/1
f 47/1/1 45/1/1 44/1/1
f 47/2/1 44/2/1 46/2/1
f 48/1/1 45/1/1 47/1/1
f 49/2/2 50/2/2 52/2/2
f 50/1/2 51/1/2 53/1/2
f 52/2/2 50/2/2 53/2/2
f 53/1/2 51/1/2 54/1/2
f 55/2/2 56/2/2 58/2/2
f 56/1/2 57/1/2 59/1/2
f 58/2/2 56/2/2 59/2/2
f 59/1/2 57/1/2 60/1/2
f 61/2/2 62/2/2 64/2/2
f 62/1/2 63/1/2 65/1/2
f 64/2/2 62/2/2 65/2/2
f 65/1/2 63/1/2 66/1/2
f 67/2/2 68/2/2 70/2/2
f 68/1/2 69/1/2 71/1/2
f 70/2/2 68/2/2 71/2/2
f 71/1/2 69/1/2 72/1/2
f 73/2/2 74/2/2 76/2/2
f 74/1/2 75/1/2 77/1/2
f 76/2/2 74/2/2 77/2/2
f 77/1/2 75/1/2 78/1/2
f 79/2/2 80/2/2 82/2/2
f 80/1/2 81/1/2 83/1/2
f 82/2/2 80/2/2 83/2/2
f 83/1/2 81/1/2 84/1/2
f 85/2/2 86/2/2 88/2/2
f 86/1/2 87/1/2 89/1/2
f 88/2/2 86/2/2 89/2/2
f 89/1/2 87/1/2 90/1/2
f 91/2/2 92/2/2 94/2/2
f 92/1/2 93/1/2 95/1/2
f 94/2/2 92/2/2 95/2/2
f 95/1/2 93/1/2 96/1/2
f 103/2/3 98/2/3 97/2/3
f 104/2/3 98/2/3 103/2/3
f 106/2/3 105/2/3 104/2/3
f 107/2/3 105/2/3 106/2/3
f 108/2/3 102/2/3 101/2/3
f 109/2/3 102/2/3 108/2/3
f 110/2/3 100/2/3 99/2/3
f 112/2/3 110/2/3 109/2/3
f 112/2/3 109/2/3 108/2/3
f 112/2/3 108/2/3 107/2/3
f 113/2/3 110/2/3 112/2/3
f 114/2/3 110/2/3 113/2/3
f 115/2/3 100/2/3 110/2/3
f 115/2/3 110/2/3 114/2/3
f 117/2/3 112/2/3 111/2/3
f 118/2/3 112/2/3 117/2/3
f 119/2/3 114/2/3 113/2/3
f 120/2/3 114/2/3 119/2/3
f 121/2/3 117/2/3 116/2/3
f 122/2/3 117/2/3 121/2/3
f 123/2/3 100/2/3 115/2/3
f 124/2/3 100/2/3 123/2/3
f 125/1/4 126/1/4 131/1/4
f 131/1/4 126/1/4 132/1/4
f 132/1/4 133/1/4 134/1/4
f 134/1/4 133/1/4 135/1/4
f 129/1/4 130/1/4 136/1/4
f 136/1/4 130/1/4 137/1/4
f 127/1/4 128/1/4 138/1/4
f 137/1/4 138/1/4 140/1/4
f 136/1/4 137/1/4 140/1/4
f 135/1/4 136/1/4 140/1/4
f 140/1/4 138/1/4 141/1/4
f 141/1/4 138/1/4 142/1/4
f 138/1/4 128/1/4 143/1/4
f 142/1/4 138/1/4 143/1/4
f 139/1/4 140/1/4 145/1/4
f 145/1/4 140/1/4 146/1/4
f 141/1/4 142/1/4 147/1/4
f 147/1/4 142/1/4 148/1/4
f 144/1/4 145/1/4 149/1/4
f 149/1/4 145/1/4 150/1/4
f 143/1/4 128/1/4 151/1/4
f 151/1/4 128/1/4 152/1/4
f 157/2/5 154/2/5 153/2/5
f 158/2/5 154/2/5 157/2/5
f 159/2/5 156/2/5 155/2/5
f 160/2/5 156/2/5 159/2/5
f 161/1/5 158/1/5 157/1/5
f 162/1/5 158/1/5 161/1/5
f 163/1/5 160/1/5 159/1/5
f 164/1/5 160/1/5 163/1/5
f 169/2/5 166/2/5 165/2/5
f 170/2/5 166/2/5 169/2/5
f 171/2/5 168/2/5 167/2/5
f 172/2/5 168/2/5 171/2/5
f 173/1/5 170/1/5 169/1/5
f 174/1/5 170/1/5 173/1/5
f 175/1/5 172/1/5 171/1/5
f 176/1/5 172/1/5 175/1/5
f 179/2/5 178/2/5 177/2/5
f 180/2/5 178/2/5 179/2/5
f 181/1/5 180/1/5 179/1/5
f 182/1/5 180/1/5 181/1/5
f 187/2/5 184/2/5 183/2/5
f 188/2/5 184/2/5 187/2/5
f 189/2/5 186/2/5 185/2/5
f 190/2/5 186/2/5 189/2/5
f 191/1/5 188/1/5 187/1/5
f 192/1/5 188/1/5 191/1/5
f 193/1/5 190/1/5 189/1/5
f 194/1/5 190/1/5 193/1/5
f 199/2/5 196/2/5 195/2/5
f 200/2/5 196/2/5 199/2/5
f 201/2/5 198/2/5 197/2/5
f 202/2/5 198/2/5 201/2/5
f 203/1/5 200/1/5 199/1/5
f 204/1/5 200/1/5 203/1/5
f 205/1/5 202/1/5 201/1/5
f 206/1/5 202/1/5 205/1/5
f 207/2/6 208/2/6 211/2/6
f 211/2/6 208/2/6 212/2/6
f 209/2/6 210/2/6 213/2/6
f 213/2/6 210/2/6 214/2/6
f 211/1/6 212/1/6 215/1/6
f 215/1/6 212/1/6 216/1/6
f 213/1/6 214/1/6 217/1/6
f 217/1/6 214/1/6 218/1/6
f 219/2/6 220/2/6 223/2/6
f 223/2/6 220/2/6 224/2/6
f 221/2/6 222/2/6 225/2/6
f 225/2/6 222/2/6 226/2/6
f 223/1/6 224/1/6 227/1/6
f 227/1/6 224/1/6 228/1/6
f 225/1/6 226/1/6 229/1/6
f 229/1/6 226/1/6 230/1/6
f 231/2/6 232/2/6 235/2/6
f 235/2/6 232/2/6 236/2/6
f 233/2/6 234/2/6 237/2/6
f 237/2/6 234/2/6 238/2/6
f 235/1/6 236/1/6 239/1/6
f 239/1/6 236/1/6 240/1/6
f 237/1/6 238/1/6 241/1/6
f 241/1/6 238/1/6 242/1/6
f 243/2/6 244/2/6 245/2/6
f 245/2/6 244/2/6 246/2/6
f 245/1/6 246/1/6 247/1/6
f 247/1/6 246/1/6 248/1/6
